<?xml version="1.0" encoding="UTF-8" standalone="no"?>
<!-- Created with Inkscape (http://www.inkscape.org/) -->

<svg
   width="50.52626mm"
   height="11.986656mm"
   viewBox="0 0 50.52626 11.986656"
   version="1.1"
   id="svg5"
   inkscape:version="1.1.2 (0a00cf5339, 2022-02-04)"
   sodipodi:docname="logo_magnet_final.svg"
   inkscape:export-filename="/home/andi/Documents/MAGNET/logo_magnet_v3.png"
   inkscape:export-xdpi="1508.1267"
   inkscape:export-ydpi="1508.1267"
   xmlns:inkscape="http://www.inkscape.org/namespaces/inkscape"
   xmlns:sodipodi="http://sodipodi.sourceforge.net/DTD/sodipodi-0.dtd"
   xmlns="http://www.w3.org/2000/svg"
   xmlns:svg="http://www.w3.org/2000/svg">
  <sodipodi:namedview
     id="namedview7"
     pagecolor="#ffffff"
     bordercolor="#666666"
     borderopacity="1.0"
     inkscape:pageshadow="2"
     inkscape:pageopacity="1"
     inkscape:pagecheckerboard="0"
     inkscape:document-units="mm"
     showgrid="false"
     inkscape:zoom="8"
     inkscape:cx="95.875"
     inkscape:cy="62.8125"
     inkscape:window-width="2560"
     inkscape:window-height="1399"
     inkscape:window-x="7680"
     inkscape:window-y="720"
     inkscape:window-maximized="1"
     inkscape:current-layer="layer1"
     fit-margin-top="0"
     fit-margin-left="0"
     fit-margin-right="0"
     fit-margin-bottom="0"
     inkscape:showpageshadow="2"
     inkscape:deskcolor="#d1d1d1" />
  <defs
     id="defs2" />
  <g
     inkscape:label="Layer 1"
     inkscape:groupmode="layer"
     id="layer1"
     transform="translate(-23.643269,-83.24629)">
    <path
       style="font-size:10.5833px;line-height:1.25;font-family:'DejaVu Sans';-inkscape-font-specification:'DejaVu Sans, Normal';fill:#214478;stroke-width:0.264583"
       d="M 26.964896,91.111557 24.47782,84.486411 h -0.04233 q 0.03175,0.328083 0.05292,0.888998 0.02117,0.550331 0.02117,1.153579 v 4.582569 h -0.878414 v -7.556476 h 1.407579 l 2.328326,6.19123 h 0.04233 l 2.370659,-6.19123 h 1.396996 v 7.556476 h -0.941914 v -4.646069 q 0,-0.550331 0.02117,-1.090079 0.03175,-0.539749 0.05292,-0.878414 h -0.04233 l -2.518825,6.614562 z m 11.006627,0 -0.910164,-2.338909 h -2.995074 l -0.89958,2.338909 h -0.96308 l 2.95274,-7.588226 h 0.857248 l 2.942157,7.588226 z m -2.042577,-5.471566 q -0.03175,-0.08467 -0.105833,-0.306916 -0.07408,-0.222249 -0.148166,-0.455081 -0.0635,-0.243416 -0.105833,-0.370416 -0.07408,0.328082 -0.169333,0.645581 -0.09525,0.306916 -0.158749,0.486832 l -0.857248,2.285993 h 2.391826 z"
       id="text4610"
       aria-label="MA" />
    <path
       id="path29166"
       style="fill:#2baad4;fill-opacity:1;stroke-width:1.32916;stroke-miterlimit:4;stroke-dasharray:none"
       d="m 153.17578,315.84961 a 37.795276,37.795276 0 0 0 -3.17383,15.11719 37.795276,37.795276 0 0 0 3.06446,14.85351 h -5.5586 v 14.11524 h 32.67578 v -0.004 l -3.78125,-14.11133 h -9.60546 a 37.795276,37.795276 0 0 1 -3.06446,-14.85351 37.795276,37.795276 0 0 1 3.17383,-15.11719 z"
       transform="scale(0.26458333)" />
    <g
       id="g135597"
       style="fill:#db2426;fill-opacity:1">
      <path
         id="path20602"
         style="fill:#db2426;fill-opacity:1;stroke-width:0.925882"
         d="m 85.640625,0 a 10.393701,15.11811 0 0 0 -10.394531,15.119141 10.393701,15.11811 0 0 0 10.394531,15.117187 10.393701,15.11811 0 0 0 9.339844,-8.503906 h -2.97461 a 7.5590551,12.283465 0 0 1 -6.365234,5.669922 7.5590551,12.283465 0 0 1 -7.560547,-12.283203 7.5590551,12.283465 0 0 1 7.560547,-12.2851566 7.5590551,12.283465 0 0 1 4.830078,2.8359375 h 3.283203 A 10.393701,15.11811 0 0 0 85.640625,0 Z"
         transform="matrix(0.26458333,0,0,0.26458333,23.643269,83.24629)" />
      <path
         id="rect25538"
         style="stroke-width:0.220056"
         d="m 46.200981,87.973633 h 8.313151 v 0.75 h -8.313151 z" />
    </g>
    <g
       id="g129234"
       style="fill:#2baad4;fill-opacity:1">
      <path
         id="path25708"
         style="stroke-width:0.307999"
         d="m 47.918938,87.04512 a 0.70991552,0.74310082 0 0 1 -0.709915,0.743101 0.70991552,0.74310082 0 0 1 -0.709916,-0.743101 0.70991552,0.74310082 0 0 1 0.709916,-0.743101 0.70991552,0.74310082 0 0 1 0.709915,0.743101 z" />
      <path
         id="rect25812"
         style="stroke-width:0.287398"
         d="m 48.166103,86.549797 h 5.412778 v 1.034911 h -5.412778 z" />
    </g>
    <path
       d="M 61.490757,90.952766 H 60.379511 L 56.33669,84.67687 h -0.04233 q 0.02117,0.370415 0.05292,0.920747 0.03175,0.550331 0.03175,1.132413 v 4.222736 H 55.50061 V 83.39629 h 1.100663 l 4.032237,6.254731 h 0.04233 Q 60.66526,89.481688 60.64409,89.143022 60.63351,88.804357 60.61234,88.402191 60.60176,88.000026 60.60176,87.66136 v -4.26507 h 0.888997 z m 6.275899,0 H 63.54392 V 83.39629 h 4.222736 v 0.836081 h -3.270239 v 2.360076 h 3.07974 v 0.825497 h -3.07974 v 2.698742 h 3.270239 z m 4.053401,0 H 70.86756 V 84.232371 H 68.507484 V 83.39629 h 5.662066 v 0.836081 h -2.349493 z"
       id="text32740"
       style="font-size:10.5833px;line-height:1.25;fill:#214478;stroke-width:0.264583"
       aria-label="NET" />
    <path
       d="m 50.207827,94.112148 h -0.366888 v 0.571499 h -0.29986 v -0.571499 h -1.206498 v -0.264582 l 1.185331,-1.696858 h 0.321027 v 1.682747 h 0.366888 z m -0.666748,-1.072442 q 0,-0.183444 0.0071,-0.310443 0.0071,-0.130528 0.01058,-0.246944 h -0.01411 q -0.02822,0.06703 -0.07055,0.144638 -0.04233,0.07761 -0.08114,0.130528 l -0.754943,1.07597 h 0.90311 z m 2.158997,-0.631471 q -0.405694,0 -0.638527,0.271639 -0.232833,0.271638 -0.232833,0.744359 0,0.469194 0.215194,0.74436 0.218722,0.271638 0.652638,0.271638 0.165805,0 0.313971,-0.02822 0.148167,-0.02822 0.289277,-0.07056 v 0.275167 q -0.14111,0.05292 -0.292804,0.07761 -0.148167,0.02469 -0.356305,0.02469 -0.384527,0 -0.642054,-0.15875 -0.257528,-0.158749 -0.388055,-0.451554 -0.127,-0.292805 -0.127,-0.687916 0,-0.380999 0.137583,-0.670276 0.141111,-0.292805 0.412749,-0.455082 0.271639,-0.165805 0.659693,-0.165805 0.398638,0 0.694971,0.148166 l -0.127,0.268111 q -0.116416,-0.05292 -0.261055,-0.09525 -0.141111,-0.04233 -0.310443,-0.04233 z m 1.823856,0.352777 q 0.345722,0 0.511527,0.151695 0.165805,0.151694 0.165805,0.483304 v 1.287636 h -0.225777 l -0.05997,-0.26811 h -0.01411 q -0.123472,0.155222 -0.261055,0.229305 -0.134056,0.07408 -0.373944,0.07408 -0.257527,0 -0.42686,-0.134055 -0.169333,-0.137583 -0.169333,-0.426861 0,-0.282221 0.22225,-0.433915 0.222249,-0.155222 0.684387,-0.169333 l 0.321027,-0.01058 V 93.43129 q 0,-0.236361 -0.102305,-0.328083 -0.102306,-0.09172 -0.289278,-0.09172 -0.148166,0 -0.282221,0.04586 -0.134055,0.04233 -0.250472,0.09878 L 52.87835,92.92329 q 0.123472,-0.06703 0.292805,-0.112889 0.169333,-0.04939 0.352777,-0.04939 z m 0.09172,1.008943 q -0.352777,0.01411 -0.49036,0.112888 -0.134055,0.09878 -0.134055,0.278694 0,0.15875 0.09525,0.232833 0.09878,0.07408 0.250472,0.07408 0.239888,0 0.398638,-0.130527 0.158749,-0.134056 0.158749,-0.409222 v -0.169333 z m 2.053166,-1.01247 q 0.05292,0 0.112888,0.0071 0.0635,0.0035 0.109361,0.01411 l -0.03881,0.28575 q -0.04586,-0.01058 -0.102306,-0.01764 -0.05292,-0.0071 -0.102305,-0.0071 -0.144639,0 -0.271638,0.08114 -0.127,0.07761 -0.204611,0.22225 -0.07408,0.14111 -0.07408,0.33161 v 1.008942 h -0.310444 v -1.890885 h 0.254 l 0.03528,0.345722 h 0.01411 q 0.09172,-0.155222 0.236361,-0.268111 0.144639,-0.112888 0.342194,-0.112888 z m 1.174746,1.96144 q -0.352777,0 -0.564443,-0.243416 -0.211666,-0.246944 -0.211666,-0.733776 0,-0.486833 0.211666,-0.733777 0.215194,-0.250471 0.567971,-0.250471 0.218722,0 0.356305,0.08114 0.14111,0.08114 0.229305,0.197556 h 0.02117 q -0.0035,-0.04586 -0.01411,-0.134056 -0.0071,-0.09172 -0.0071,-0.144638 v -0.754943 h 0.310443 v 2.681105 h -0.250471 l -0.04586,-0.253999 h -0.01411 q -0.08467,0.119944 -0.225778,0.20461 -0.14111,0.08467 -0.36336,0.08467 z m 0.04939,-0.257527 q 0.29986,0 0.419804,-0.162278 0.123472,-0.165805 0.123472,-0.497415 v -0.05644 q 0,-0.352777 -0.116416,-0.539748 -0.116416,-0.1905 -0.430388,-0.1905 -0.250472,0 -0.377471,0.201083 -0.123472,0.197555 -0.123472,0.532693 0,0.338666 0.123472,0.525638 0.126999,0.186972 0.380999,0.186972 z m 1.608662,-2.377717 q 0.07055,0 0.123472,0.04939 0.05644,0.04586 0.05644,0.148167 0,0.09878 -0.05644,0.148166 -0.05292,0.04939 -0.123472,0.04939 -0.07761,0 -0.130527,-0.04939 -0.05292,-0.04939 -0.05292,-0.148166 0,-0.102306 0.05292,-0.148167 0.05292,-0.04939 0.130527,-0.04939 z m 0.151694,0.709081 v 1.890885 h -0.310444 v -1.890885 z m 1.315857,-0.03175 q 0.345721,0 0.511526,0.151695 0.165805,0.151694 0.165805,0.483304 v 1.287636 h -0.225777 l -0.05997,-0.26811 h -0.01411 q -0.123472,0.155222 -0.261055,0.229305 -0.134055,0.07408 -0.373944,0.07408 -0.257527,0 -0.42686,-0.134055 -0.169333,-0.137583 -0.169333,-0.426861 0,-0.282221 0.22225,-0.433915 0.222249,-0.155222 0.684387,-0.169333 l 0.321027,-0.01058 V 93.43129 q 0,-0.236361 -0.102305,-0.328083 -0.102305,-0.09172 -0.289277,-0.09172 -0.148167,0 -0.282222,0.04586 -0.134055,0.04233 -0.250472,0.09878 l -0.09525,-0.232833 q 0.123472,-0.06703 0.292805,-0.112889 0.169333,-0.04939 0.352777,-0.04939 z m 0.09172,1.008943 q -0.352777,0.01411 -0.49036,0.112888 -0.134056,0.09878 -0.134056,0.278694 0,0.15875 0.09525,0.232833 0.09878,0.07408 0.250472,0.07408 0.239888,0 0.398638,-0.130527 0.158749,-0.134056 0.158749,-0.409222 v -0.169333 z m 1.929692,0.94897 q -0.250472,0 -0.448027,-0.102305 -0.194027,-0.102306 -0.306916,-0.3175 -0.109361,-0.215194 -0.109361,-0.550332 0,-0.349249 0.116417,-0.567971 0.116416,-0.218722 0.313971,-0.321027 0.201083,-0.102305 0.455083,-0.102305 0.144638,0 0.278693,0.03175 0.134056,0.02822 0.218722,0.07055 l -0.09525,0.257527 q -0.08467,-0.03175 -0.197555,-0.05997 -0.112888,-0.02822 -0.211666,-0.02822 -0.557388,0 -0.557388,0.716137 0,0.342194 0.134056,0.525638 0.137583,0.179916 0.405693,0.179916 0.155222,0 0.271639,-0.03175 0.119944,-0.03175 0.218721,-0.07761 v 0.275167 q -0.09525,0.04939 -0.211666,0.07408 -0.112889,0.02822 -0.275166,0.02822 z m 1.114775,-0.03528 1.033636,-2.236606 h -1.358191 v -0.282222 h 1.689802 v 0.239889 l -1.023054,2.278939 z m 2.677578,0 h -0.3175 V 92.443513 H 64.678743 V 92.164819 H 66.5661 v 0.278694 h -0.783165 z"
       id="text42532"
       style="font-size:3.52777px;line-height:1.25;fill:#214478;stroke-width:0.264583"
       aria-label="4Cardiac7T" />
  </g>
</svg>
